<svg width="18" height="18" viewBox="0 0 18 18" fill="none" xmlns="http://www.w3.org/2000/svg">
<path d="M9.00448 10.3219C10.7048 10.3219 12.0832 8.93072 12.0832 7.21461C12.0832 5.49849 10.7048 4.1073 9.00448 4.1073C7.30416 4.1073 5.92578 5.49849 5.92578 7.21461C5.92578 8.93072 7.30416 10.3219 9.00448 10.3219Z" stroke="white" stroke-width="1.1" stroke-linecap="round" stroke-linejoin="round"/>
<path d="M3.74609 15.1694C4.29563 14.2589 5.06797 13.5065 5.98887 12.9844C6.90977 12.4623 7.94826 12.188 9.0045 12.188C10.0607 12.188 11.0992 12.4623 12.0201 12.9844C12.941 13.5065 13.7134 14.2589 14.2629 15.1694" stroke="white" stroke-width="1.1" stroke-linecap="round" stroke-linejoin="round"/>
<path d="M9.0046 17.158C13.4254 17.158 17.0092 13.5409 17.0092 9.079C17.0092 4.61709 13.4254 1 9.0046 1C4.58378 1 1 4.61709 1 9.079C1 13.5409 4.58378 17.158 9.0046 17.158Z" stroke="white" stroke-width="1.1" stroke-linecap="round" stroke-linejoin="round"/>
</svg>
