<svg width="120" height="73" viewBox="0 0 120 73" fill="none" xmlns="http://www.w3.org/2000/svg">
<path d="M118.699 5.07309L104.164 42.3591C103.703 43.5451 102.894 44.5639 101.844 45.2823C100.794 46.0006 99.552 46.3849 98.2802 46.3848C97.0179 46.3844 95.7846 46.0058 94.7394 45.2977C93.6941 44.5896 92.8846 43.5844 92.4153 42.4118L77.4894 5.07309H85.535C86.6384 5.07328 87.7159 5.40894 88.6245 6.03562C89.5331 6.6623 90.2301 7.55043 90.623 8.58236L98.6686 29.7462L107.635 5.07309H118.699Z" fill="white"/>
<path d="M74.8897 5.07309L79.09 15.551H66.2365V46.3848H55.0671V15.551H40.3938V5.07309H74.8897Z" fill="white"/>
<path d="M38.1968 5.07309H27.0273V29.1605C27.0273 33.6859 23.2903 36.7148 19.459 36.7148C14.2238 36.7148 11.9072 32.2949 11.9072 29.1605V10.6479C11.9072 9.91584 11.7632 9.19091 11.4832 8.51454C11.2033 7.83817 10.7929 7.2236 10.2756 6.70593C9.7583 6.18826 9.14417 5.77761 8.46828 5.49745C7.79239 5.21729 7.06799 5.07309 6.33642 5.07309H0.737839V25.6984C0.737839 40.027 7.54325 47.2232 20.122 47.2232C30.6062 47.2232 38.1968 41.1458 38.1968 26.187V5.07309Z" fill="white"/>
<path d="M8.11193 53.4921H114.438V64.4558C114.438 66.3784 113.675 68.2222 112.316 69.5817C110.957 70.9411 109.115 71.7048 107.194 71.7048H0.868172V60.7411C0.868172 58.8186 1.63135 56.9748 2.98982 55.6154C4.34828 54.2559 6.19076 53.4921 8.11193 53.4921Z" fill="#00B0E1"/>
<path d="M8.18967 57.8566H11.9322C14.0019 57.8566 15.7941 58.5062 15.7941 60.8439C15.7941 63.065 13.9103 63.8285 11.8379 63.8285H9.73774V68.5288H8.18967V57.8566ZM12.1625 62.5569C12.3484 62.5569 14.1712 62.6457 14.1712 60.8439C14.1712 59.042 12.3484 59.1281 12.1625 59.1281H9.73774V62.5569H12.1625Z" fill="white"/>
<path d="M19.1481 63.709V68.5288H17.6028V57.8566H21.5923C23.4622 57.8566 25.3931 58.4118 25.3931 60.533C25.4054 61.1417 25.2005 61.735 24.815 62.2061C24.4296 62.6773 23.889 62.9957 23.2902 63.1038V63.1343C24.6358 63.4453 24.8049 64.1255 24.9909 65.3221C25.1462 66.3854 25.2849 67.5237 25.6871 68.5288H24.0226C23.8568 67.8815 23.728 67.2251 23.637 66.5631C23.5121 65.6025 23.4982 64.7308 22.9878 64.1977C22.5383 63.709 21.9197 63.709 21.301 63.709H19.1481ZM19.1176 62.4402H21.67C23.3845 62.4402 23.7701 61.6268 23.7701 60.7744C23.7701 59.9222 23.3845 59.1086 21.67 59.1086H19.1176V62.4402Z" fill="white"/>
<path d="M32.5956 57.6455C36.0745 57.6455 37.6975 60.086 37.6975 63.1982C37.6975 66.3105 36.0745 68.7508 32.5956 68.7508C29.1165 68.7508 27.4963 66.3132 27.4963 63.1982C27.4963 60.0832 29.1193 57.6455 32.5956 57.6455ZM32.5956 67.4903C35.4253 67.4903 36.0745 65.422 36.0745 63.2037C36.0745 60.9271 35.4253 58.9171 32.5956 58.9171C29.7657 58.9171 29.1193 60.9271 29.1193 63.2037C29.1193 65.4192 29.7712 67.4793 32.5956 67.4793V67.4903Z" fill="white"/>
<path d="M40.036 57.8566H43.7453C44.7828 57.8566 45.8787 57.9593 46.7747 58.5062C48.3977 59.4974 49.1412 61.1688 49.1412 63.1927C49.1412 65.2166 48.3977 66.888 46.7747 67.8791C45.8787 68.4343 44.7828 68.5288 43.7453 68.5288H40.036V57.8566ZM41.5812 67.2572H43.8395C45.3987 67.2572 46.2338 66.652 46.6666 66.0467C47.2222 65.1992 47.5183 64.2077 47.5183 63.1941C47.5183 62.1804 47.2222 61.1889 46.6666 60.3413C46.2338 59.7334 45.3987 59.1281 43.8395 59.1281H41.5812V67.2572Z" fill="white"/>
<path d="M60.2884 64.3087C60.2884 67.0601 58.8181 68.7509 55.7885 68.7509C52.7589 68.7509 51.2913 67.0517 51.2913 64.3087V57.8566H52.8366V64.6558C52.8366 66.4882 54.0268 67.4793 55.7885 67.4793C57.5502 67.4793 58.7431 66.4882 58.7431 64.6558V57.8566H60.2884V64.3087Z" fill="white"/>
<path d="M69.9102 60.6051C69.8325 59.5862 68.6895 58.906 67.5437 58.906C64.7944 58.906 64.2839 61.3159 64.2839 63.1927C64.2839 65.3942 64.9775 67.4793 67.405 67.4793C68.5952 67.4793 69.6772 66.924 69.863 65.7802H71.486C71.3307 67.5681 69.4469 68.7509 67.2663 68.7509C63.9731 68.7509 62.6609 66.18 62.6609 63.1982C62.6609 61.7045 63.016 60.1442 64.0037 59.0337C64.7472 58.2203 65.8431 57.6289 67.4522 57.6289C69.6716 57.6289 71.3612 58.695 71.5332 60.5995L69.9102 60.6051Z" fill="white"/>
<path d="M76.0609 59.1281H72.3211V57.8566H81.346V59.1281H77.6062V68.5288H76.0609V59.1281Z" fill="white"/>
<path d="M82.9243 68.5288V57.8566H84.4696V68.5288H82.9243Z" fill="white"/>
<path d="M91.8577 57.6455C95.334 57.6455 96.957 60.086 96.957 63.1982C96.957 66.3105 95.334 68.7508 91.8577 68.7508C88.3815 68.7508 86.7586 66.3132 86.7586 63.1982C86.7586 60.0832 88.3788 57.6455 91.8577 57.6455ZM91.8577 67.4903C94.6848 67.4903 95.334 65.422 95.334 63.2037C95.334 60.9271 94.6848 58.9171 91.8577 58.9171C89.0307 58.9171 88.3788 60.9271 88.3788 63.2037C88.3788 65.4192 89.028 67.4793 91.8577 67.4793V67.4903Z" fill="white"/>
<path d="M108.365 57.8566V68.5288H106.448L100.807 59.4669H100.777V68.5288H99.39V57.8566H101.507L106.948 66.6825H106.978V57.8566H108.365Z" fill="white"/>
</svg>
